<svg xmlns="http://www.w3.org/2000/svg" xmlns:xlink="http://www.w3.org/1999/xlink" width="500" zoomAndPan="magnify" viewBox="0 0 375 374.999991" height="500" preserveAspectRatio="xMidYMid meet" version="1.0"><defs><g/><clipPath id="26134c1480"><path d="M 5.21875 155 L 66 155 L 66 217 L 5.21875 217 Z M 5.21875 155 " clip-rule="nonzero"/></clipPath><clipPath id="dfbccc53b2"><path d="M 48 126.566406 L 109.46875 126.566406 L 109.46875 217 L 48 217 Z M 48 126.566406 " clip-rule="nonzero"/></clipPath><clipPath id="45a842a3c8"><path d="M 5.21875 210 L 56 210 L 56 217 L 5.21875 217 Z M 5.21875 210 " clip-rule="nonzero"/></clipPath><clipPath id="38bcd48123"><path d="M 48 140 L 109.46875 140 L 109.46875 217 L 48 217 Z M 48 140 " clip-rule="nonzero"/></clipPath><clipPath id="bff1d8c330"><path d="M 48 126.566406 L 58 126.566406 L 58 142 L 48 142 Z M 48 126.566406 " clip-rule="nonzero"/></clipPath></defs><g clip-path="url(#26134c1480)"><path fill="#38b6ff" d="M 57.375 155.898438 L 40.46875 155.898438 L 5.21875 216.960938 L 55.9375 216.960938 L 65.832031 199.824219 L 58.816406 187.679688 L 57.375 185.183594 L 55.9375 187.679688 L 47.484375 202.320312 L 30.578125 202.320312 Z M 57.375 155.898438 " fill-opacity="1" fill-rule="evenodd"/></g><g clip-path="url(#dfbccc53b2)"><path fill="#4b4c52" d="M 109.539062 216.960938 L 57.375 126.617188 L 48.925781 141.261719 L 52.816406 147.996094 L 57.375 155.898438 L 62.015625 163.933594 L 84.175781 202.320312 L 88.738281 210.222656 L 92.632812 216.960938 Z M 109.539062 216.960938 " fill-opacity="1" fill-rule="evenodd"/></g><path fill="#2493d4" d="M 57.375 155.898438 L 44.25 162.835938 L 16.890625 210.222656 L 30.578125 202.320312 Z M 57.375 155.898438 " fill-opacity="1" fill-rule="evenodd"/><g clip-path="url(#45a842a3c8)"><path fill="#2493d4" d="M 16.890625 210.222656 L 5.21875 216.960938 L 55.421875 216.960938 L 51.765625 210.222656 Z M 16.890625 210.222656 " fill-opacity="1" fill-rule="evenodd"/></g><path fill="#2493d4" d="M 47.484375 202.320312 L 51.765625 210.222656 L 56.160156 202.320312 L 57.894531 199.203125 L 57.375 185.183594 Z M 47.484375 202.320312 " fill-opacity="1" fill-rule="evenodd"/><g clip-path="url(#38bcd48123)"><path fill="#2b2727" d="M 62.015625 163.933594 L 84.175781 202.320312 L 88.738281 210.222656 L 92.632812 216.960938 L 109.539062 216.960938 L 97.867188 210.222656 L 57.375 140.09375 L 48.925781 141.261719 L 52.816406 147.996094 L 57.375 155.898438 Z M 62.015625 163.933594 " fill-opacity="1" fill-rule="evenodd"/></g><g clip-path="url(#bff1d8c330)"><path fill="#5f6472" d="M 57.375 140.09375 L 57.375 126.617188 L 48.925781 141.261719 Z M 57.375 140.09375 " fill-opacity="1" fill-rule="evenodd"/></g><g fill="#000000" fill-opacity="1"><g transform="translate(102.562123, 200.282668)"><g><path d="M 8.875 0 C 6.5 0 4.925781 0.046875 4.15625 0.140625 L 4.15625 -32.28125 C 4.539062 -32.1875 5.34375 -32.140625 6.5625 -32.140625 C 7.78125 -32.140625 9.191406 -32.171875 10.796875 -32.234375 L 10.796875 -5.796875 L 15.796875 -5.796875 C 17.253906 -5.796875 18.414062 -5.84375 19.28125 -5.9375 C 19.164062 -2.175781 19.109375 -0.222656 19.109375 -0.078125 L 19.109375 0.171875 C 17.535156 0.0546875 14.882812 0 11.15625 0 Z M 8.875 0 "/></g></g></g><g fill="#000000" fill-opacity="1"><g transform="translate(135.538844, 200.282668)"><g><path d="M 2.34375 -12.421875 C 2.34375 -14.304688 2.664062 -16.050781 3.3125 -17.65625 C 3.957031 -19.269531 4.867188 -20.679688 6.046875 -21.890625 C 8.554688 -24.453125 11.84375 -25.734375 15.90625 -25.734375 C 19.332031 -25.734375 22.082031 -24.597656 24.15625 -22.328125 C 26.207031 -20.140625 27.234375 -17.382812 27.234375 -14.0625 C 27.234375 -12.789062 27.132812 -11.921875 26.9375 -11.453125 C 25.332031 -11.003906 22.054688 -10.78125 17.109375 -10.78125 L 8.609375 -10.78125 C 9.023438 -9.050781 10 -7.707031 11.53125 -6.75 C 13.0625 -5.789062 15.050781 -5.3125 17.5 -5.3125 C 20.050781 -5.3125 22.25 -5.769531 24.09375 -6.6875 C 24.570312 -6.9375 24.929688 -7.164062 25.171875 -7.375 C 25.140625 -6.695312 25.101562 -6.003906 25.0625 -5.296875 L 24.796875 -1.515625 C 23.566406 -0.679688 21.582031 -0.101562 18.84375 0.21875 C 18.039062 0.3125 17.269531 0.359375 16.53125 0.359375 C 12.4375 0.359375 9.050781 -0.832031 6.375 -3.21875 C 3.6875 -5.613281 2.34375 -8.679688 2.34375 -12.421875 Z M 20.796875 -15.46875 C 20.140625 -18.925781 18.257812 -20.65625 15.15625 -20.65625 C 12.707031 -20.65625 10.84375 -19.601562 9.5625 -17.5 C 9.175781 -16.851562 8.878906 -16.144531 8.671875 -15.375 C 9.054688 -15.351562 9.53125 -15.332031 10.09375 -15.3125 L 11.890625 -15.3125 C 12.484375 -15.300781 13.054688 -15.296875 13.609375 -15.296875 L 14.984375 -15.296875 C 15.804688 -15.296875 16.609375 -15.300781 17.390625 -15.3125 L 19.375 -15.390625 C 19.90625 -15.410156 20.378906 -15.4375 20.796875 -15.46875 Z M 20.796875 -15.46875 "/></g></g></g><g fill="#000000" fill-opacity="1"><g transform="translate(176.777763, 200.282668)"><g><path d="M -0.09375 -25.25 L 6.734375 -25.25 L 12.640625 -8.625 L 18.34375 -25.25 L 25.03125 -25.25 L 15.046875 0 L 10.078125 0 Z M -0.09375 -25.25 "/></g></g></g><g fill="#000000" fill-opacity="1"><g transform="translate(214.006375, 200.282668)"><g><path d="M 2.34375 -12.421875 C 2.34375 -14.304688 2.664062 -16.050781 3.3125 -17.65625 C 3.957031 -19.269531 4.867188 -20.679688 6.046875 -21.890625 C 8.554688 -24.453125 11.84375 -25.734375 15.90625 -25.734375 C 19.332031 -25.734375 22.082031 -24.597656 24.15625 -22.328125 C 26.207031 -20.140625 27.234375 -17.382812 27.234375 -14.0625 C 27.234375 -12.789062 27.132812 -11.921875 26.9375 -11.453125 C 25.332031 -11.003906 22.054688 -10.78125 17.109375 -10.78125 L 8.609375 -10.78125 C 9.023438 -9.050781 10 -7.707031 11.53125 -6.75 C 13.0625 -5.789062 15.050781 -5.3125 17.5 -5.3125 C 20.050781 -5.3125 22.25 -5.769531 24.09375 -6.6875 C 24.570312 -6.9375 24.929688 -7.164062 25.171875 -7.375 C 25.140625 -6.695312 25.101562 -6.003906 25.0625 -5.296875 L 24.796875 -1.515625 C 23.566406 -0.679688 21.582031 -0.101562 18.84375 0.21875 C 18.039062 0.3125 17.269531 0.359375 16.53125 0.359375 C 12.4375 0.359375 9.050781 -0.832031 6.375 -3.21875 C 3.6875 -5.613281 2.34375 -8.679688 2.34375 -12.421875 Z M 20.796875 -15.46875 C 20.140625 -18.925781 18.257812 -20.65625 15.15625 -20.65625 C 12.707031 -20.65625 10.84375 -19.601562 9.5625 -17.5 C 9.175781 -16.851562 8.878906 -16.144531 8.671875 -15.375 C 9.054688 -15.351562 9.53125 -15.332031 10.09375 -15.3125 L 11.890625 -15.3125 C 12.484375 -15.300781 13.054688 -15.296875 13.609375 -15.296875 L 14.984375 -15.296875 C 15.804688 -15.296875 16.609375 -15.300781 17.390625 -15.3125 L 19.375 -15.390625 C 19.90625 -15.410156 20.378906 -15.4375 20.796875 -15.46875 Z M 20.796875 -15.46875 "/></g></g></g><g fill="#000000" fill-opacity="1"><g transform="translate(255.245294, 200.282668)"><g><path d="M 9.15625 -2.703125 C 9.15625 -1.316406 9.1875 -0.414062 9.25 0 L 3.109375 0 L 3.109375 -36 L 9.15625 -36 Z M 9.15625 -2.703125 "/></g></g></g><g fill="#000000" fill-opacity="1"><g transform="translate(279.959816, 200.282668)"><g><path d="M 22.46875 -32.25 C 23.46875 -32.175781 24.296875 -32.140625 24.953125 -32.140625 L 26.96875 -32.140625 C 27.644531 -32.140625 28.351562 -32.203125 29.09375 -32.328125 L 29.09375 -12.34375 C 29.09375 -8.382812 27.890625 -5.203125 25.484375 -2.796875 C 23.210938 -0.523438 20.363281 0.609375 16.9375 0.609375 C 13.1875 0.609375 10.148438 -0.363281 7.828125 -2.3125 C 5.234375 -4.507812 3.9375 -7.671875 3.9375 -11.796875 L 3.9375 -32.25 C 5.269531 -32.175781 6.53125 -32.140625 7.71875 -32.140625 C 8.90625 -32.140625 9.882812 -32.203125 10.65625 -32.328125 L 10.65625 -11.484375 C 10.65625 -9.453125 11.273438 -7.867188 12.515625 -6.734375 C 13.671875 -5.703125 15.117188 -5.1875 16.859375 -5.1875 C 19.441406 -5.1875 21.160156 -6.507812 22.015625 -9.15625 C 22.316406 -10.101562 22.46875 -11.28125 22.46875 -12.6875 Z M 22.46875 -32.25 "/></g></g></g><g fill="#000000" fill-opacity="1"><g transform="translate(325.329824, 200.282668)"><g><path d="M 9.828125 -0.5 L 9.828125 6.59375 C 9.828125 7.976562 9.863281 8.878906 9.9375 9.296875 L 3.921875 9.296875 L 3.921875 -25.25 L 9.828125 -25.25 L 9.828125 -23.671875 C 11.773438 -25.046875 13.644531 -25.734375 15.4375 -25.734375 C 17.226562 -25.734375 18.816406 -25.484375 20.203125 -24.984375 C 21.585938 -24.484375 22.800781 -23.710938 23.84375 -22.671875 C 26.144531 -20.390625 27.296875 -17.148438 27.296875 -12.953125 C 27.296875 -10.160156 26.644531 -7.671875 25.34375 -5.484375 C 24.226562 -3.628906 22.691406 -2.144531 20.734375 -1.03125 C 18.992188 -0.0507812 17.109375 0.4375 15.078125 0.4375 C 13.046875 0.4375 11.296875 0.125 9.828125 -0.5 Z M 9.828125 -6.59375 C 11.054688 -5.5625 12.644531 -5.046875 14.59375 -5.046875 C 17.78125 -5.046875 19.84375 -6.585938 20.78125 -9.671875 C 21.101562 -10.710938 21.265625 -11.832031 21.265625 -13.03125 C 21.265625 -14.226562 21.148438 -15.1875 20.921875 -15.90625 C 20.703125 -16.625 20.410156 -17.242188 20.046875 -17.765625 C 19.679688 -18.296875 19.269531 -18.734375 18.8125 -19.078125 C 18.363281 -19.421875 17.90625 -19.695312 17.4375 -19.90625 C 16.625 -20.28125 15.78125 -20.46875 14.90625 -20.46875 C 14.039062 -20.46875 13.140625 -20.265625 12.203125 -19.859375 C 11.265625 -19.453125 10.472656 -18.914062 9.828125 -18.25 Z M 9.828125 -6.59375 "/></g></g></g></svg>